<svg width="20" height="21" viewBox="0 0 20 21" fill="none" xmlns="http://www.w3.org/2000/svg">
<path d="M9.528 1.94922H2.89511C2.3925 1.94922 1.91047 2.14959 1.55506 2.50625C1.19966 2.86291 1 3.34665 1 3.85104V17.1638C1 17.6682 1.19966 18.1519 1.55506 18.5086C1.91047 18.8653 2.3925 19.0656 2.89511 19.0656H16.1609C16.6635 19.0656 17.1455 18.8653 17.5009 18.5086C17.8563 18.1519 18.056 17.6682 18.056 17.1638V10.5074" stroke="#ffffff" stroke-width="2" stroke-linecap="round" stroke-linejoin="round"/>
<path d="M15.569 1.59082C15.946 1.21252 16.4573 1 16.9904 1C17.5235 1 18.0348 1.21252 18.4117 1.59082C18.7887 1.96912 19.0005 2.4822 19.0005 3.01719C19.0005 3.55218 18.7887 4.06526 18.4117 4.44356L9.8714 13.0151C9.6464 13.2407 9.36844 13.4058 9.06314 13.4953L6.34081 14.2941C6.25927 14.3179 6.17285 14.3194 6.09057 14.2982C6.00829 14.277 5.9332 14.2341 5.87314 14.1738C5.81308 14.1136 5.77028 14.0382 5.7492 13.9556C5.72812 13.8731 5.72954 13.7863 5.75333 13.7045L6.54927 10.9725C6.63884 10.6664 6.80372 10.3878 7.02874 10.1623L15.569 1.59082Z" stroke="#ffffff" stroke-width="2" stroke-linecap="round" stroke-linejoin="round"/>
</svg>
